<?xml version="1.0" encoding="UTF-8" standalone="no"?>
<!DOCTYPE svg PUBLIC "-//W3C//DTD SVG 1.1//EN" "http://www.w3.org/Graphics/SVG/1.1/DTD/svg11.dtd">
<!-- Created with Vectornator (http://vectornator.io/) -->
<svg height="100%" stroke-miterlimit="10" style="fill-rule:nonzero;clip-rule:evenodd;stroke-linecap:round;stroke-linejoin:round;" version="1.1" viewBox="0 0 64 64" width="100%" xml:space="preserve" xmlns="http://www.w3.org/2000/svg" xmlns:xlink="http://www.w3.org/1999/xlink">
<defs/>
<clipPath id="ArtboardFrame">
<rect height="64" width="64" x="0" y="0"/>
</clipPath>
<g clip-path="url(#ArtboardFrame)" id="Layer-1">
<path d="M0.0608724 31.9702C0.0608724 14.3112 14.3254-0.00428351 31.9227-0.00428351C49.5199-0.00428351 63.7845 14.3112 63.7845 31.9702C63.7845 49.6291 49.5199 63.9448 31.9227 63.9448C14.3254 63.9448 0.0608724 49.6291 0.0608724 31.9702Z" fill="#eeeeef" fill-rule="nonzero" opacity="1" stroke="none"/>
<path d="M19.0875 21.6239C19.0875 19.1146 21.3548 17.0802 24.1513 17.0802C26.9477 17.0802 29.0793 19.2001 29.0793 21.7095C29.0793 24.2188 26.9477 26.1676 24.1513 26.1676C21.3548 26.1676 19.0875 24.1333 19.0875 21.6239Z" fill="#d2d3d5" fill-rule="nonzero" opacity="1" stroke="none"/>
<path d="M46.9138 21.6874C46.9138 19.6734 48.5776 18.0406 50.6311 18.0406C52.6835 18.0406 54.2487 19.742 54.2487 21.756C54.2487 23.7702 52.6835 25.3341 50.6311 25.3341C48.5776 25.3341 46.9138 23.7015 46.9138 21.6874Z" fill="#d2d3d5" fill-rule="nonzero" opacity="1" stroke="none"/>
<path d="M28.2669 11.3258C28.2669 9.86037 29.4777 8.67236 30.9716 8.67236C32.4656 8.67236 33.6041 9.91024 33.6041 11.3758C33.6041 12.8412 32.4656 13.9792 30.9716 13.9792C29.4777 13.9792 28.2669 12.7912 28.2669 11.3258Z" fill="#d2d3d5" fill-rule="nonzero" opacity="1" stroke="none"/>
<path d="M13.5814 28.2362C13.5814 27.0444 14.5666 26.0783 15.7813 26.0783C16.996 26.0783 17.9216 27.085 17.9216 28.2767C17.9216 29.4685 16.996 30.394 15.7813 30.394C14.5666 30.394 13.5814 29.4278 13.5814 28.2362Z" fill="#d2d3d5" fill-rule="nonzero" opacity="1" stroke="none"/>
<path d="M31.3339 29.745C31.3339 28.5533 32.3191 27.5872 33.5338 27.5872C34.7484 27.5872 35.6741 28.5939 35.6741 29.7856C35.6741 30.9774 34.7484 31.9028 33.5338 31.9028C32.3191 31.9028 31.3339 30.9367 31.3339 29.745Z" fill="#d2d3d5" fill-rule="nonzero" opacity="1" stroke="none"/>
<path d="M7.19526 20.5158C7.19526 19.8029 7.78434 19.2251 8.51099 19.2251C9.23765 19.2251 9.79139 19.8272 9.79139 20.5401C9.79139 21.2529 9.23765 21.8065 8.51099 21.8065C7.78434 21.8065 7.19526 21.2286 7.19526 20.5158Z" fill="#d2d3d5" fill-rule="nonzero" opacity="1" stroke="none"/>
<path d="M22.4259 9.3961C22.4259 8.68324 23.0157 8.1054 23.7421 8.1054C24.4686 8.1054 25.0222 8.70754 25.0222 9.4204C25.0222 10.1333 24.4686 10.6868 23.7421 10.6868C23.0157 10.6868 22.4259 10.109 22.4259 9.3961Z" fill="#d2d3d5" fill-rule="nonzero" opacity="1" stroke="none"/>
<path d="M10.3676 40.9689C10.3676 40.2561 10.9567 39.6781 11.6832 39.6781C12.4097 39.6781 12.9633 40.2804 12.9633 40.9932C12.9633 41.7061 12.4097 42.2596 11.6832 42.2596C10.9567 42.2596 10.3676 41.6818 10.3676 40.9689Z" fill="#d2d3d5" fill-rule="nonzero" opacity="1" stroke="none"/>
<path d="M35.8586 44.8704C31.8719 44.8704 28.6389 48.1948 28.6389 52.2991C28.6389 54.613 29.7452 56.178 31.3788 57.3731C31.5155 57.5253 31.6532 57.6783 31.8035 57.814C31.9842 57.9773 32.1756 58.1268 32.3767 58.2642C33.2535 58.8609 34.3227 59.2042 35.5774 59.2042C38.9266 59.2042 41.9652 56.1361 42.5394 53.885C42.7493 53.1237 42.8831 53.0571 42.8831 52.44C42.8831 48.3357 39.8454 44.8704 35.8586 44.8704Z" fill="#d2d3d5" fill-rule="nonzero" opacity="1" stroke="none"/>
<path d="M56.1801 36.5139C54.7711 36.5139 53.739 37.495 53.739 38.8779C53.739 39.9237 54.1296 40.4874 55.0572 40.8621C55.0826 40.8106 55.2623 40.8506 55.2984 40.8069C55.4741 40.9307 55.6558 41.0458 55.8266 41.0458C57.2366 41.0458 58.2921 40.1505 58.2921 38.7676C58.2921 37.8405 57.5549 37.1107 56.7416 36.6914C56.7425 36.6881 56.7435 36.6857 56.7455 36.6823C56.6937 36.6637 56.6742 36.6531 56.6381 36.6364C56.5687 36.6032 56.5033 36.5544 56.434 36.5261C56.4291 36.536 56.4262 36.5438 56.4213 36.5537C56.3607 36.5321 56.3012 36.5139 56.1801 36.5139Z" fill="#d2d3d5" fill-rule="nonzero" opacity="1" stroke="none"/>
<path d="M25.6979 57.024C24.8514 57.024 24.1659 57.6974 24.1659 58.5275C24.1659 58.7576 24.12 58.6908 24.2147 58.8857C24.2801 58.891 24.3368 58.8853 24.4002 58.8888C24.6522 59.3806 25.1843 59.7034 25.7956 59.7034C26.4254 59.7034 26.7447 59.3469 26.8667 58.8215C27.021 58.792 27.1967 58.7586 27.1831 58.7633C27.185 58.5324 27.1899 58.8179 27.1899 58.555C27.1899 57.725 26.5435 57.024 25.6979 57.024Z" fill="#d2d3d5" fill-rule="nonzero" opacity="1" stroke="none"/>
<path d="M50.9953 6.41217C53.6248 9.55651 56.9134 17.0914 56.888 17.0255C57.2337 16.7934 57.6721 16.6458 58.1574 16.6458C58.6417 16.6458 58.8702 16.9264 59.1445 17.1563C59.5625 17.5066 59.6904 17.6606 59.6904 18.1576C59.6904 18.5616 59.8222 19.1612 59.3027 19.635C58.7833 20.1086 57.7697 20.1898 57.7121 20.182C57.6897 20.1064 58.505 24.5902 58.505 27.1643C58.505 30.4209 58.0236 33.5632 57.1351 36.5252C58.1125 36.8791 58.7852 37.8298 58.7852 38.9228C58.7852 40.3057 57.7111 41.3786 56.3022 41.3786C55.9585 41.3786 55.6333 41.3095 55.3345 41.1888C52.5224 47.0559 47.9976 51.9172 42.4242 55.1184C41.4272 57.8479 38.9305 59.7269 35.8704 59.7269C34.5893 59.7269 33.3883 59.3826 32.3455 58.7807C30.6123 59.0878 28.8323 59.2592 27.0151 59.2676C26.7661 59.723 26.2867 60.027 25.7087 60.027C25.0974 60.027 24.575 59.6719 24.3299 59.1634C18.0818 58.6586 12.3462 56.3138 7.64803 52.6595C13.4506 59.5923 22.0939 63.9957 31.7596 63.9957C49.2309 63.9957 64.0609 49.6196 64.0609 31.8891C64.0609 21.5044 58.5313 12.2803 50.9953 6.41217Z" fill="#d2d3d5" fill-rule="nonzero" opacity="1" stroke="none"/>
<path d="M45.4853 43.0778C45.4853 42.2192 46.1951 41.5232 47.07 41.5232C47.9459 41.5232 48.6128 42.2484 48.6128 43.1071C48.6128 43.9657 47.9459 44.6324 47.07 44.6324C46.1951 44.6324 45.4853 43.9364 45.4853 43.0778Z" fill="#d2d3d5" fill-rule="nonzero" opacity="1" stroke="none"/>
<path d="M56.1557 18.4263C56.1557 17.5628 56.8529 16.8628 57.7131 16.8628C58.5743 16.8628 59.2715 17.5628 59.2715 18.4263C59.2715 19.2899 58.5743 19.9899 57.7131 19.9899C56.8529 19.9899 56.1557 19.2899 56.1557 18.4263Z" fill="#d2d3d5" fill-rule="nonzero" opacity="1" stroke="none"/>
</g>
</svg>
